<svg xmlns="http://www.w3.org/2000/svg" width="24" height="24" viewBox="0 0 24 24" fill="none" stroke="#0f172a" stroke-width="2" stroke-linecap="round" stroke-linejoin="round"><path d="M22.54 6.42A2.78 2.78 0 0 0 20.82 4.7C19.41 4.22 12 4.22 12 4.22s-7.41 0-8.82.48A2.78 2.78 0 0 0 1.46 6.42 29.94 29.94 0 0 0 1 12a29.94 29.94 0 0 0 .46 5.58 2.78 2.78 0 0 0 1.72 1.72c1.41.48 8.82.48 8.82.48s7.41 0 8.82-.48a2.78 2.78 0 0 0 1.72-1.72A29.94 29.94 0 0 0 23 12a29.94 29.94 0 0 0-.46-5.58z"/><polygon points="9.75 15.02 15.5 12 9.75 8.98 9.75 15.02"/></svg>
